<?xml version="1.0" standalone="no"?>
<!DOCTYPE svg PUBLIC "-//W3C//DTD SVG 20010904//EN"
 "http://www.w3.org/TR/2001/REC-SVG-20010904/DTD/svg10.dtd">
<svg version="1.0" xmlns="http://www.w3.org/2000/svg"
 width="500.000000pt" height="500.000000pt" viewBox="0 0 500.000000 500.000000"
 preserveAspectRatio="xMidYMid meet">
<metadata>
Created by potrace 1.11, written by Peter Selinger 2001-2013
</metadata>
<g transform="translate(0.000000,500.000000) scale(0.100000,-0.100000)"
fill="#000000" stroke="none">
<path d="M2664 4889 c-45 -13 -125 -88 -157 -148 -50 -91 -92 -238 -118 -416
-15 -100 -19 -561 -6 -708 l7 -88 -37 -15 c-20 -9 -51 -18 -68 -21 -29 -5 -31
-3 -49 50 -36 106 -147 222 -235 247 -54 15 -142 12 -197 -7 -173 -58 -278
-213 -291 -428 -13 -217 79 -408 232 -485 69 -34 215 -35 288 -2 110 50 208
191 230 331 l11 68 70 16 c45 11 72 13 76 7 4 -6 12 -52 19 -103 25 -196 57
-254 133 -244 96 13 141 77 158 224 27 239 101 463 157 471 29 4 33 -31 31
-238 -2 -179 7 -229 48 -293 76 -116 266 -95 398 43 32 33 59 60 60 60 2 0 9
-14 16 -30 19 -45 65 -80 106 -80 60 0 91 24 109 82 8 28 15 66 15 84 0 61 39
261 70 356 34 108 67 163 95 163 17 0 21 -9 26 -60 4 -33 7 -121 8 -195 3
-235 22 -324 76 -348 56 -26 140 -5 171 43 17 26 17 35 1 188 -9 89 -19 250
-22 357 -3 107 -8 212 -11 234 -20 157 -168 167 -304 20 -65 -71 -127 -192
-164 -318 -14 -49 -29 -92 -32 -95 -4 -3 -3 73 1 169 13 295 16 280 -54 280
-59 0 -121 -37 -142 -85 -26 -58 -39 -253 -28 -406 l9 -121 -34 -56 c-39 -63
-90 -117 -122 -126 -14 -4 -30 0 -45 13 l-24 19 0 279 c0 153 -4 289 -8 303
-16 49 -32 72 -59 86 -88 46 -223 -32 -310 -178 -39 -66 -118 -273 -118 -310
0 -10 -4 -18 -8 -18 -5 0 -14 41 -20 91 l-11 91 55 91 c87 144 198 375 232
483 42 134 56 234 49 357 -6 121 -32 201 -86 260 -56 62 -117 80 -197 56z m64
-209 c26 -28 42 -106 42 -201 0 -141 -46 -313 -128 -479 l-47 -95 -3 130 c-6
245 27 545 69 627 22 43 39 47 67 18z m-825 -1156 c8 -77 48 -154 109 -209 49
-44 50 -47 46 -90 -11 -96 -68 -160 -143 -160 -58 0 -92 27 -130 101 -28 55
-30 66 -30 174 0 104 2 119 25 158 24 43 72 82 101 82 12 0 18 -13 22 -56z"/>
<path d="M1035 4439 c-137 -8 -229 -22 -371 -60 -337 -87 -505 -229 -529 -445
-18 -162 74 -364 167 -364 68 0 138 60 138 118 0 13 -9 37 -20 52 -101 142
-72 263 81 340 104 53 327 104 489 112 l65 3 6 -110 c4 -60 8 -188 10 -284 l4
-174 -65 -39 c-172 -105 -372 -287 -452 -413 -76 -119 -101 -193 -106 -321 -4
-96 -1 -121 17 -177 65 -196 274 -276 476 -183 207 95 318 333 377 806 9 70
13 238 13 507 l0 402 32 15 c38 18 48 47 40 114 -6 53 -28 77 -85 91 -54 13
-162 17 -287 10z m37 -1131 c-7 -180 -40 -365 -82 -462 -103 -231 -300 -218
-300 20 0 153 108 326 291 464 44 33 83 60 87 60 4 0 6 -37 4 -82z"/>
<path d="M2804 2459 c-89 -26 -178 -154 -228 -329 -87 -309 -97 -850 -20
-1167 l17 -71 -59 -89 c-88 -131 -149 -154 -174 -65 -5 21 -10 147 -10 292 0
283 -2 294 -62 302 -18 3 -54 -1 -80 -8 -48 -12 -48 -12 -63 16 -19 36 -41 43
-100 30 -167 -37 -316 -201 -372 -410 -26 -100 -24 -276 5 -361 31 -90 81
-152 149 -185 46 -23 63 -26 116 -22 35 3 81 15 104 26 43 22 98 83 127 140
l17 33 41 -46 c55 -62 108 -88 169 -83 83 8 153 64 255 204 l22 29 42 -48 c23
-26 65 -60 93 -74 46 -23 59 -25 131 -20 111 6 163 32 254 124 l73 74 37 -32
c78 -69 190 -93 299 -65 148 37 252 158 289 336 8 41 17 76 18 77 4 4 114 33
125 33 4 0 15 -41 25 -91 34 -178 81 -259 151 -259 50 0 94 25 110 64 7 17 19
79 25 136 15 139 45 278 81 370 34 90 54 120 78 120 25 0 31 -26 31 -140 1
-164 18 -375 34 -413 26 -62 89 -81 167 -50 66 26 73 56 54 206 -9 67 -20 237
-24 377 -9 285 -15 316 -72 345 -93 49 -235 -39 -324 -200 -35 -63 -87 -202
-100 -270 l-8 -40 -7 37 c-4 20 -2 116 3 212 11 206 10 211 -63 204 -125 -12
-152 -59 -169 -290 l-6 -91 -35 -12 c-75 -26 -100 -28 -106 -8 -42 125 -122
226 -212 269 -50 24 -64 26 -141 22 -105 -5 -173 -35 -246 -106 -94 -92 -138
-209 -138 -367 0 -49 6 -116 12 -148 12 -57 12 -57 -20 -98 -102 -129 -222
-142 -282 -32 l-27 51 31 68 c57 126 139 347 173 469 65 230 86 363 86 545 0
348 -114 532 -296 479z m68 -220 c41 -55 60 -281 37 -459 -20 -168 -90 -453
-135 -555 l-18 -40 -8 45 c-16 85 -21 570 -8 709 19 210 57 337 97 329 9 -2
24 -14 35 -29z m642 -911 c13 -94 67 -188 130 -228 32 -19 33 -21 25 -73 -9
-66 -30 -109 -66 -135 -115 -80 -226 26 -240 228 -8 116 20 197 87 243 43 30
57 23 64 -35z m-1418 -343 c-8 -232 -18 -293 -62 -345 -20 -23 -34 -30 -63
-30 -57 0 -81 32 -94 124 -27 190 53 390 178 447 22 10 42 19 44 19 2 0 1 -97
-3 -215z"/>
<path d="M880 1970 c-177 -21 -342 -94 -437 -193 -95 -98 -133 -191 -133 -322
0 -236 134 -382 420 -459 353 -95 379 -104 433 -155 16 -14 35 -38 43 -53 19
-36 18 -132 -2 -174 -52 -108 -245 -183 -445 -172 -150 9 -199 54 -206 187 -3
42 -9 89 -15 104 -36 94 -171 88 -219 -10 -18 -37 -21 -57 -17 -121 12 -182
96 -299 255 -354 61 -20 85 -23 223 -22 132 1 169 5 250 26 116 31 176 58 257
115 149 105 213 247 192 426 -12 102 -43 169 -106 231 -83 84 -150 112 -463
196 -217 58 -302 109 -328 199 -40 133 24 244 172 300 156 58 314 45 385 -32
20 -22 26 -44 36 -131 7 -62 18 -114 28 -129 20 -30 78 -51 115 -42 76 18 105
70 104 187 -1 177 -71 293 -217 358 -53 24 -196 53 -244 49 -9 -1 -45 -5 -81
-9z"/>
</g>
</svg>
